<?xml version="1.0" standalone="no"?>
<!DOCTYPE svg PUBLIC "-//W3C//DTD SVG 20010904//EN"
 "http://www.w3.org/TR/2001/REC-SVG-20010904/DTD/svg10.dtd">
<svg version="1.0" xmlns="http://www.w3.org/2000/svg"
 width="700.000000pt" height="700.000000pt" viewBox="0 0 700.000000 700.000000"
 preserveAspectRatio="xMidYMid meet">
<metadata>
Created by potrace 1.14, written by Peter Selinger 2001-2017
</metadata>
<g transform="translate(0.000000,700.000000) scale(0.100000,-0.100000)"
fill="#000000" stroke="none">
<path d="M0 3500 l0 -3500 3500 0 3500 0 0 3500 0 3500 -3500 0 -3500 0 0
-3500z m2110 2600 c151 -36 212 -75 730 -462 672 -501 658 -491 672 -482 7 5
265 196 573 426 597 446 652 481 805 518 76 18 118 20 407 20 l323 0 32 -29
33 -29 3 -1559 c2 -1022 -1 -1598 -8 -1675 -35 -399 -177 -754 -424 -1058 -64
-80 -864 -890 -878 -890 -4 0 -8 295 -8 655 l0 655 -870 0 -870 0 0 -657 0
-658 -416 415 c-228 228 -442 447 -473 485 -240 290 -388 660 -421 1050 -8 90
-10 609 -8 1683 l3 1554 33 29 32 29 323 0 c289 0 331 -2 407 -20z"/>
<path d="M2700 4393 c-8 -3 -27 -17 -42 -31 l-28 -26 0 -638 0 -638 870 0 870
0 0 633 c0 569 -2 635 -16 656 -21 30 -71 51 -106 44 -16 -3 -170 -127 -383
-310 -206 -175 -363 -302 -371 -299 -7 3 -168 138 -358 300 -189 163 -356 300
-370 306 -29 11 -43 11 -66 3z"/>
</g>
</svg>
