<?xml version="1.0" encoding="utf-8"?>
<!-- Generator: Adobe Illustrator 28.1.0, SVG Export Plug-In . SVG Version: 6.00 Build 0)  -->
<svg version="1.1" id="Layer_1" xmlns="http://www.w3.org/2000/svg" xmlns:xlink="http://www.w3.org/1999/xlink" x="0px" y="0px"
	 viewBox="0 0 607.5 278.7" style="enable-background:new 0 0 607.5 278.7;" xml:space="preserve">
<style type="text/css">
	.st0{fill:#FFFFFF;}
</style>
<path class="st0" d="M120.2,94.7c-10.8,0-19.7-6.4-21.1-14.6c-0.2-1.2,0.7-2.4,2-2.4h98.3c6.2,0,9.7,5.6,6,9.6
	c-0.1,0.1-0.1,0.1-0.2,0.2c-4.3,4.6-11,7.3-18.2,7.3H120.2z M203.4,106.7l-74.3,4.4c-1.3,0.1-2.1,1.3-1.8,2.5
	c2.1,8.1,11.5,14,22.2,13.4l44.6-2.7c7.7-0.4,14.3-4.7,16.2-10.6c0-0.1,0-0.1,0.1-0.2C211.6,109.9,208.1,106.4,203.4,106.7z
	 M219,150.3c3.9-0.7,6.3-3.9,5.3-7v0c-2-6-9.7-9.6-17.2-8.2l-53.4,9.4c-1.3,0.2-2.1,1.7-1.4,2.9c3.9,7.7,14.4,12.1,24.8,10.2
	L219,150.3z M242.8,169.8c5.5-2.7,7.9-3.6,2.8-9.1c-4.3-4.6-12-6.2-18.5-3.7l-20.3,9L192,172c-1.5,0.6-1.7,2.6-0.4,3.5
	c9,5.8,21.6,7,32.2,2.8L242.8,169.8z M106.2,61.8h62.9c9,0,17.7-2.3,24.8-6.7c0.1-0.1,0.2-0.1,0.3-0.2c5.4-3.3,2.5-10.1-4.3-10.1
	H81.2c-1.5,0-2.5,1.6-1.8,2.9C84,56.1,94.5,61.8,106.2,61.8z M556.9,2.1c0.1-1.2-1-2.2-2.2-2.1c-17.9,1.6-48.8,4.5-77.3,7.1
	c-29.1,2.7-55.6,5.1-62.9,5.8c-3.9,0.4-5.5,0.7-10,2.1c-21.9,6.6-37.2,28.8-36.4,53c0.2,31.5,0.2,47.4-32.6,74.6
	c-8.1,6.8-16.3,12.8-24.4,18.4c-4.5,3.1-10.3,3.1-14.8,0c-8.1-5.6-16.3-11.7-24.4-18.4c-32.8-27.2-32.8-43.1-32.6-74.6
	c0.8-24.1-14.5-46.4-36.4-53c-4.4-1.4-6-1.7-10-2.1c-7.3-0.7-33.8-3.1-62.9-5.8C101.6,4.5,70.7,1.6,52.8,0c-1.2-0.1-2.2,0.9-2.2,2.1
	C51,10.5,57.5,17.5,66,18.3c17.7,1.6,40.8,3.7,62.5,5.7c29.1,2.7,55.6,5.1,62.9,5.7c2.7,0.3,3.1,0.3,6.5,1.4l0.2,0
	c14.5,4.3,24.9,19.9,24.3,36.2l0,0.3c-0.2,33.4-0.3,55.5,38.7,87.9c12.5,10.4,25.1,19.2,37,27.1c2.7,1.8,7.4,2.1,10.4,0.6l0,0
	c12.2-8.1,25.2-17,37.9-27.7c39.1-32.4,38.9-54.5,38.7-87.9l0-0.3c-0.6-16.3,9.9-31.9,24.3-36.2l0.2,0c3.4-1.1,3.8-1.1,6.4-1.4
	c7.3-0.7,33.8-3.1,62.9-5.8c21.7-2,44.8-4.1,62.5-5.7C550,17.5,556.5,10.5,556.9,2.1z M487.2,94.7c10.8,0,19.7-6.4,21.1-14.6
	c0.2-1.2-0.7-2.4-2-2.4h-98.3c-6.2,0-9.7,5.6-6,9.6c0.1,0.1,0.1,0.1,0.2,0.2c4.3,4.6,11,7.3,18.2,7.3H487.2z M404,106.7
	c-4.6-0.3-8.1,3.2-7,6.8c0,0.1,0,0.1,0.1,0.2c1.9,6,8.5,10.2,16.2,10.6l44.6,2.7c10.7,0.6,20.1-5.2,22.2-13.4
	c0.3-1.2-0.6-2.4-1.8-2.5L404,106.7z M430.4,157.5c10.4,2,20.9-2.5,24.8-10.2c0.6-1.2-0.1-2.6-1.4-2.9l-53.4-9.4
	c-7.6-1.4-15.2,2.2-17.2,8.2v0c-1.1,3.1,1.3,6.3,5.3,7L430.4,157.5z M383.6,178.3c10.6,4.2,23.2,3,32.2-2.8c1.4-0.9,1.1-2.9-0.4-3.5
	l-14.9-5.9l-20.3-9c-6.5-2.6-14.2-0.9-18.5,3.7c-5.1,5.5-2.7,6.4,2.8,9.1L383.6,178.3z M528,47.7c0.7-1.3-0.3-2.9-1.8-2.9H417.6
	c-6.8,0-9.7,6.8-4.3,10.1c0.1,0.1,0.2,0.1,0.3,0.2c7.1,4.4,15.8,6.7,24.8,6.7h62.9C513,61.8,523.5,56.1,528,47.7z M266.5,15.3
	l13.1,0c3.2,0,6.3,1.3,8.5,3.5L303,33.7c0.4,0.4,1.1,0.4,1.5,0l14.9-14.9c2.3-2.3,5.3-3.5,8.5-3.5l13.1,0c0.6,0,1.1,0.5,1.1,1.1
	v63.4c0,16.7-6.2,32.9-17.3,45.4v0c-0.7,0.7-1.9,0.3-1.9-0.7V94.2c0-1.2-1-2.1-2.1-2.1h-34.1c-1.2,0-2.1,1-2.1,2.1v30.3
	c0,1-1.2,1.5-1.9,0.7v0c-11.1-12.5-17.3-28.6-17.3-45.4V16.4C265.4,15.8,265.9,15.3,266.5,15.3z M322.9,49.3c0-1.9-2.3-2.9-3.7-1.5
	l-14.7,14.7c-0.4,0.4-1.1,0.4-1.5,0l-14.7-14.7c-1.4-1.4-3.7-0.4-3.7,1.5v23.6v0h38.3v0V49.3z M18.6,277.5c-0.5,0-0.9-0.5-1.4-1.4
	c-0.5-0.9-0.7-2.5-0.7-4.6v-35.3h0.3c1.1,2.3,2.3,4.8,3.6,7.5c1.3,2.7,2.6,5.5,3.9,8.2c1.3,2.8,2.6,5.4,3.8,7.9s2.3,4.8,3.2,6.8
	c0.9,2,1.7,3.6,2.2,4.8c0.9,2.2,1.4,3.7,1.5,4.6c0,0.9-0.1,1.4-0.5,1.5h14.1c-0.3-0.1-0.5-0.6-0.5-1.5c0-0.9,0.5-2.5,1.5-4.5
	c0.6-1.3,1.4-3.1,2.4-5.1c1-2.1,2.1-4.4,3.3-6.9c1.2-2.5,2.5-5.1,3.9-7.9c1.3-2.7,2.7-5.4,4-8.1c1.3-2.7,2.6-5.1,3.8-7.3h0.2v35.3
	c0,2.2-0.2,3.7-0.7,4.6c-0.4,0.9-0.9,1.4-1.4,1.4h18.3c-0.5,0-0.9-0.5-1.4-1.4c-0.5-0.9-0.7-2.5-0.7-4.6v-48.4
	c0-2.2,0.2-3.8,0.7-4.7c0.5-0.9,0.9-1.4,1.4-1.4H61.2c0.3,0,0.3,0.5,0.2,1.4c-0.1,0.9-0.7,2.5-1.6,4.6c-0.4,0.9-1.1,2.4-2,4.4
	c-0.9,2-2,4.3-3.3,7c-1.3,2.7-2.7,5.6-4.1,8.6c-1.4,3-2.9,6.1-4.4,9.1c-1.5,3-2.9,5.9-4.2,8.6h-0.1c-1.3-2.6-2.6-5.5-4.1-8.5
	c-1.4-3.1-2.9-6.1-4.3-9.1c-1.4-3-2.8-5.9-4-8.5c-1.2-2.7-2.3-5-3.3-7c-0.9-2-1.6-3.4-2.1-4.3c-1.1-2.2-1.7-3.8-1.8-4.7
	c-0.1-0.9,0-1.4,0.4-1.5H0c0.5,0.1,0.9,0.6,1.4,1.5c0.5,0.9,0.7,2.4,0.7,4.6v48.5c0,2.2-0.2,3.7-0.7,4.6c-0.5,0.9-0.9,1.4-1.4,1.4
	H18.6z M140.2,274.9c4.5-2.6,7.6-6,9.4-10.4c1.8-4.4,2.7-9.3,2.7-14.8c0-5.6-0.9-10.6-2.8-15c-1.9-4.4-5-7.9-9.5-10.5
	c-4.5-2.6-10.7-3.9-18.6-3.9c-7.9,0-14.1,1.3-18.6,3.9c-4.5,2.6-7.6,6.1-9.5,10.5c-1.9,4.4-2.8,9.4-2.8,15c0,5.5,0.9,10.5,2.7,14.8
	c1.8,4.4,4.9,7.9,9.5,10.4c4.5,2.6,10.8,3.8,18.7,3.8C129.5,278.7,135.7,277.4,140.2,274.9z M112.4,265.8c-2.2-1.2-3.8-3.2-4.8-5.8
	c-1-2.6-1.4-6.1-1.4-10.3c0-4.3,0.5-7.8,1.4-10.5c1-2.7,2.6-4.7,4.8-6c2.2-1.3,5.2-2,9-2c3.8,0,6.9,0.6,9.1,1.9
	c2.2,1.3,3.8,3.3,4.8,5.9c1,2.7,1.4,6.2,1.4,10.6c0,4.4-0.5,7.9-1.4,10.5c-1,2.6-2.6,4.5-4.8,5.7c-2.2,1.2-5.3,1.8-9.1,1.8
	C117.7,267.7,114.7,267.1,112.4,265.8z M190.4,277.8c2.6-0.6,4.9-1.4,6.8-2.3c1.9-0.9,3.3-1.8,4.1-2.6l-1.2-10.2v-3.7
	c-1,1.2-2.2,2.5-3.7,3.8c-1.5,1.4-3.1,2.5-4.7,3.4c-1.7,0.9-3.3,1.4-4.8,1.4c-2.1,0-3.5-0.6-4.3-1.9c-0.8-1.2-1.2-3.7-1.2-7.4v-26.1
	h18.8c0-1.7,0.3-3.6,0.8-5.7c0.5-2.1,1.1-3.8,1.6-5.2h-21.2v-15.9h-12c0,4.2-0.4,7.4-1.3,9.7c-0.9,2.3-2.4,3.9-4.4,4.8
	c-2.1,0.9-4.9,1.4-8.6,1.4v10.9h10.8v31.2c0,5.3,1.2,9.2,3.7,11.6c2.5,2.4,6.5,3.5,12,3.5C184.9,278.7,187.8,278.4,190.4,277.8z
	 M256.2,274.9c4.5-2.6,7.6-6,9.4-10.4c1.8-4.4,2.7-9.3,2.7-14.8c0-5.6-0.9-10.6-2.8-15c-1.9-4.4-5-7.9-9.5-10.5
	c-4.5-2.6-10.7-3.9-18.6-3.9c-7.9,0-14.1,1.3-18.6,3.9c-4.5,2.6-7.6,6.1-9.5,10.5c-1.9,4.4-2.8,9.4-2.8,15c0,5.5,0.9,10.5,2.7,14.8
	c1.8,4.4,4.9,7.9,9.5,10.4c4.5,2.6,10.8,3.8,18.7,3.8C245.5,278.7,251.8,277.4,256.2,274.9z M228.5,265.8c-2.2-1.2-3.8-3.2-4.8-5.8
	c-1-2.6-1.4-6.1-1.4-10.3c0-4.3,0.5-7.8,1.4-10.5c1-2.7,2.6-4.7,4.8-6c2.2-1.3,5.2-2,9-2c3.8,0,6.9,0.6,9.1,1.9
	c2.2,1.3,3.8,3.3,4.8,5.9c1,2.7,1.4,6.2,1.4,10.6c0,4.4-0.5,7.9-1.4,10.5c-1,2.6-2.6,4.5-4.8,5.7c-2.2,1.2-5.3,1.8-9.1,1.8
	C233.7,267.7,230.7,267.1,228.5,265.8z M295.5,277.5c-0.5,0-0.9-0.5-1.4-1.4c-0.5-0.9-0.7-2.5-0.7-4.6v-16.4c0-1.5,0.2-2.4,0.6-2.6
	c0.4-0.3,1.6-0.4,3.6-0.4h27.2c2,0,3.1,0.1,3.5,0.4c0.4,0.2,0.6,1.1,0.6,2.7v16.4c0,2.2-0.2,3.7-0.7,4.6c-0.5,0.9-0.9,1.4-1.4,1.4
	h18.6c-0.5,0-0.9-0.5-1.4-1.4c-0.5-0.9-0.7-2.5-0.7-4.6v-48.4c0-2.2,0.2-3.8,0.7-4.7c0.5-0.9,0.9-1.4,1.4-1.4h-18.6
	c0.5,0.1,0.9,0.6,1.4,1.5c0.5,0.9,0.7,2.4,0.7,4.6v15.9c0,1.5-0.2,2.4-0.5,2.7c-0.3,0.2-1.5,0.4-3.5,0.4h-27.2c-2,0-3.2-0.1-3.6-0.4
	c-0.4-0.3-0.6-1.1-0.6-2.6v-15.7c0-2.2,0.2-3.8,0.7-4.7c0.5-0.9,0.9-1.4,1.4-1.4h-18.6c0.5,0.1,0.9,0.6,1.4,1.5
	c0.5,0.9,0.7,2.4,0.7,4.6v48.5c0,2.2-0.2,3.7-0.7,4.6c-0.5,0.9-0.9,1.4-1.4,1.4H295.5z M383.6,278.2c2.4-0.4,4.4-0.8,6.3-1.4
	c1.8-0.6,3.4-1.3,4.8-2.1c1.4-0.8,2.5-1.6,3.4-2.4l0.2,0.1l-0.2,2.3v2.9h18c-0.6-0.6-1.1-1.3-1.6-2.3c-0.5-1-0.8-2.6-0.8-4.8v-22.3
	c0-6-0.8-11-2.5-15.1c-1.7-4.1-4.6-7.2-8.8-9.4s-10.1-3.2-17.7-3.2c-5.6,0-10.4,0.3-14.5,1c-4.1,0.7-7.3,1.4-9.7,2.1
	c-2.4,0.7-3.9,1.2-4.5,1.6l1.2,11v3.2c0.8-0.8,2.4-1.8,4.7-3.1c2.3-1.3,5.3-2.4,9.1-3.4c3.8-1,8-1.5,12.8-1.5c3.7,0,6.5,0.6,8.6,1.7
	c2.1,1.1,3.5,2.8,4.4,5.1c0.8,2.3,1.3,5.3,1.3,9.1c-0.6-0.4-1.7-1-3.4-1.7c-1.7-0.7-3.9-1.4-6.6-2c-2.7-0.6-6-1-9.8-1
	c-5.2,0-9.7,0.7-13.6,2c-3.9,1.4-6.9,3.4-9,6.1c-2.1,2.7-3.2,6.1-3.2,10.3c0,6.1,2,10.6,6,13.5c4,2.9,9.9,4.4,17.5,4.4
	C378.7,278.7,381.2,278.5,383.6,278.2z M371.1,266.3c-2.2-1-3.4-2.8-3.4-5.4c0-2.3,1-4.1,3.1-5.5c2.1-1.4,5.6-2,10.7-2
	c5.3,0,9.3,0.7,12.2,2c2.9,1.4,4.3,3,4.3,5c0,1.4-0.7,2.7-2,3.8c-1.3,1.1-3.3,1.9-5.8,2.6c-2.6,0.6-5.6,1-9.2,1
	C376.6,267.7,373.3,267.2,371.1,266.3z M460.2,277.5c-0.6,0-0.9-0.5-1.1-1.6c-0.2-1,0.2-2.9,1.1-5.6c0.4-1.4,1.2-3.5,2.3-6.3
	c1.2-2.8,2.5-6,3.9-9.4c1.5-3.4,3-6.9,4.5-10.4c1.5-3.5,2.9-6.6,4.2-9.4c1.3-2.8,2.2-4.9,2.8-6.3c1.2-2.6,2.3-4.4,3.3-5.4
	c1-1.1,1.8-1.6,2.3-1.6h-22.3c0.6,0,0.9,0.6,1.1,1.7c0.2,1.1-0.2,3-1.1,5.5c-1,2.6-2,5.3-3.1,8.3c-1.1,3-2.2,6.1-3.4,9.3
	c-1.2,3.2-2.3,6.5-3.5,9.7c-1.2,3.2-2.3,6.4-3.4,9.6h-0.1c-1.1-3.1-2.3-6.5-3.6-10.2c-1.3-3.7-2.6-7.3-3.8-10.8
	c-1.3-3.5-2.4-6.7-3.4-9.5c-1-2.8-1.7-4.9-2.3-6.2c-1-2.7-1.3-4.6-1.1-5.7c0.2-1.1,0.6-1.7,1.1-1.7H412c0.6,0,1.4,0.6,2.6,1.7
	c1.2,1.2,2.3,3.1,3.5,5.7c0.7,1.5,1.7,3.7,2.9,6.6c1.2,2.9,2.6,6.1,4.1,9.7c1.5,3.6,3,7,4.5,10.5c1.5,3.4,2.8,6.5,3.8,9.1
	c1.1,2.6,1.8,4.5,2.1,5.5c1,2.6,1.3,4.5,1.1,5.6c-0.2,1.1-0.6,1.6-1.1,1.6H460.2z M528.8,277.1c4.3-1.1,7.3-2.1,8.9-3.2l-1.2-8.7
	V262c-1.7,1.2-4.5,2.5-8.5,3.8c-4,1.3-8.7,2-14,2c-6.4,0-11-1.3-13.9-3.8c-2.9-2.6-4.4-6.3-4.4-11.1h28.8c5.2,0,8.9,0.1,11.1,0.4
	c2.2,0.3,3.3,0.5,3.3,0.8v-5.6c0-3.3-0.4-6.6-1.1-9.9c-0.7-3.3-2.1-6.3-4-9.1c-2-2.8-4.8-4.9-8.6-6.6c-3.8-1.6-8.7-2.5-14.7-2.5
	c-10.3,0-18,2.6-23,7.9c-5.1,5.3-7.6,12.4-7.6,21.4c0,4.5,0.5,8.5,1.6,12c1,3.6,2.8,6.6,5.1,9.2c2.4,2.6,5.7,4.5,9.9,5.9
	s9.4,2,15.7,2C518.9,278.7,524.4,278.2,528.8,277.1z M497.6,242.6c-0.5-0.4-0.7-1-0.7-1.8c0-1.6,0.5-3.1,1.5-4.5
	c1-1.4,2.5-2.6,4.5-3.6c2-1,4.6-1.4,7.6-1.4c3.4,0,5.9,0.6,7.8,1.9c1.8,1.2,3.2,2.8,4,4.6c0.8,1.8,1.2,3.7,1.2,5.5h-23.2
	C498.9,243.2,498.1,243,497.6,242.6z M566.4,277.5c-0.6,0-1.1-0.6-1.6-1.7c-0.5-1.1-0.8-3-0.8-5.5V248c0-4.1,0.7-7.3,2.1-9.7
	c1.4-2.4,3.2-4.2,5.5-5.3c2.3-1.2,4.6-1.7,7.1-1.7c2.1,0,3.9,0.5,5.5,1.4c1.6,0.9,2.9,2.5,3.8,4.8c0.9,2.3,1.4,5.4,1.4,9.5v23.5
	c0,2.6-0.3,4.4-0.8,5.5c-0.5,1.1-1.1,1.7-1.6,1.7h20.5c-0.6,0-1.1-0.6-1.6-1.7c-0.5-1.1-0.8-3-0.8-5.5v-23.8c0-9-2-15.6-5.9-19.9
	c-4-4.2-9.6-6.3-17.1-6.3c-3.6,0-6.6,0.6-9.2,1.8c-2.5,1.2-4.5,2.5-6,3.9c-1.5,1.4-2.5,2.5-2.9,3.4l-0.2-0.2l0.2-1.6v-7.3
	c-1.8,0.6-4.3,1.1-7.7,1.6c-3.4,0.5-6.8,0.8-10.3,0.8c0.6,0.1,1.1,0.7,1.6,1.7c0.5,1.1,0.8,2.9,0.8,5.4v40.5c0,2.6-0.3,4.4-0.8,5.5
	c-0.5,1.1-1.1,1.7-1.6,1.7H566.4z"/>
</svg>
